# xmcd
#
# Track frame offsets:
#	150
#	14937
#	30464
#	49877
#
# Disc length: 887 seconds
#
# Revision: 0
# Processed by: cddbd v1.5.2PL0 Copyright (c) Steve Scherf et al.
# Submitted via: audiograbber 1.83.01
#
DISCID=30037504
DTITLE=SCM - SCM Volume 10
DYEAR=2001
DGENRE=Gospel
TTITLE0=Charlotte Richie - In Everthing Give Thanks
TTITLE1=Evident Call - It's Not Too Late
TTITLE2=Dora Pop - Storyteller
TTITLE3=Sunday Edition - He Bore A Crown
EXTD=Poster pack CD single
EXTT0=
EXTT1=
EXTT2=
EXTT3=
PLAYORDER=
